<?xml version="1.0" encoding="UTF-8" standalone="no"?>
<svg
   xmlns:dc="http://purl.org/dc/elements/1.1/"
   xmlns:cc="http://creativecommons.org/ns#"
   xmlns:rdf="http://www.w3.org/1999/02/22-rdf-syntax-ns#"
   xmlns:svg="http://www.w3.org/2000/svg"
   xmlns="http://www.w3.org/2000/svg"
   xmlns:sodipodi="http://sodipodi.sourceforge.net/DTD/sodipodi-0.dtd"
   xmlns:inkscape="http://www.inkscape.org/namespaces/inkscape"
   version="1.0"
   width="765.000000pt"
   height="163.000000pt"
   viewBox="0 0 765.000000 163.000000"
   preserveAspectRatio="xMidYMid meet"
   id="svg3838"
   sodipodi:docname="sw_logo_restore_2.svg"
   inkscape:version="0.92.4 (5da689c313, 2019-01-14)">
  <title
     id="title3881">Star Wars '76 logo</title>
  <defs
     id="defs3842" />
  <sodipodi:namedview
     pagecolor="#ffffff"
     bordercolor="#666666"
     borderopacity="1"
     objecttolerance="10"
     gridtolerance="10"
     guidetolerance="10"
     inkscape:pageopacity="0"
     inkscape:pageshadow="2"
     inkscape:window-width="1920"
     inkscape:window-height="1048"
     id="namedview3840"
     showgrid="false"
     inkscape:zoom="1"
     inkscape:cx="477.25"
     inkscape:cy="106.66667"
     inkscape:window-x="0"
     inkscape:window-y="0"
     inkscape:window-maximized="0"
     inkscape:current-layer="svg3838" />
  <metadata
     id="metadata3818">
Created by potrace 1.15, written by Peter Selinger 2001-2017
<rdf:RDF>
  <cc:Work
     rdf:about="">
    <dc:format>image/svg+xml</dc:format>
    <dc:type
       rdf:resource="http://purl.org/dc/dcmitype/StillImage" />
    <dc:title>Star Wars '76 logo</dc:title>
    <dc:creator>
      <cc:Agent>
        <dc:title>LÆMEUR</dc:title>
      </cc:Agent>
    </dc:creator>
    <dc:description>A vector reconstruction of Ralph McQuarrie's 1975/76 Star Wars logo.</dc:description>
    <cc:license
       rdf:resource="http://creativecommons.org/publicdomain/zero/1.0/" />
  </cc:Work>
  <cc:License
     rdf:about="http://creativecommons.org/publicdomain/zero/1.0/">
    <cc:permits
       rdf:resource="http://creativecommons.org/ns#Reproduction" />
    <cc:permits
       rdf:resource="http://creativecommons.org/ns#Distribution" />
    <cc:permits
       rdf:resource="http://creativecommons.org/ns#DerivativeWorks" />
  </cc:License>
</rdf:RDF>
</metadata>
  <g
     id="g3879">
    <path
       d="m 67,25.9 c -4.1,1.3 -11.3,5.2 -13.8,7.5 -4,3.5 -6.5,9.6 -7,16.8 -0.4,5.9 -0.1,7.4 2.7,13.4 2.7,5.8 5.8,9.4 21.6,25.3 10.1,10.2 18.9,19.9 19.5,21.6 2.2,5.7 -0.9,14.3 -6.3,17.5 -2.9,1.8 -5.2,2 -28.3,2 h -25 l -1.7,3.5 c -0.9,2 -1.7,3.8 -1.7,4 0,0.3 13,0.5 29,0.5 26.4,0 29.4,-0.2 34.3,-2 5.5,-2.1 11.4,-7.3 14,-12.5 4.1,-8.4 4.6,-20.8 1.2,-27.6 C 104.5,94 94.8,83.5 83.9,72.5 73,61.5 63.6,51.2 63.1,49.7 60.5,42.9 62.6,38 69.4,34.9 72.7,33.4 75.9,33 85.6,33 h 12 l 1.7,-3.5 c 0.9,-2 1.7,-3.8 1.7,-4 0,-0.8 -31.3,-0.4 -34,0.4 z"
       id="path3820"
       inkscape:connector-curvature="0"
       style="fill:#000000;stroke:none;stroke-width:0.1" />
    <path
       d="m 101.63102,28.5 c -0.86348,2 -1.63102,3.8 -1.63102,4 0,0.3 6.04437,0.5 13.43194,0.5 h 13.43193 V 85.5 138 h 10.55367 10.55366 V 85.5 33 h 11.32121 11.3212 l 1.63102,-3.5 c 0.86349,-2 1.63102,-3.8 1.63102,-4 0,-0.3 -15.92644,-0.5 -35.3068,-0.5 h -35.30681 z"
       id="path3822"
       inkscape:connector-curvature="0"
       style="fill:#000000;stroke:none;stroke-width:0.0979502" />
    <path
       d="m 209.2784,26.6 c -2.87827,0.9 -5.6606,2.8 -7.96322,5.4 -2.20667,2.6 -11.9928,21.7 -27.91924,55 l -24.46531,51 h 10.84149 10.74555 l 9.11453,-19 9.11453,-19 h 15.35078 15.44673 l 1.63102,-3.5 c 0.86348,-2 1.63102,-3.8 1.63102,-4 0,-0.3 -6.71597,-0.5 -14.87107,-0.5 -8.15511,0 -14.87107,-0.2 -14.87107,-0.5 0,-0.3 5.85248,-12.6 12.95222,-27.5 11.41715,-23.7 14.4873,-29 17.17369,-29 0.28783,0 0.57566,23.2 0.57566,51.5 V 138 h 10.55366 10.55367 V 81.5 25 l -15.54267,0.1 c -10.64961,0 -17.07775,0.5 -20.05197,1.5 z"
       id="path3824"
       inkscape:connector-curvature="0"
       style="fill:#000000;stroke:none;stroke-width:0.0979502" />
    <path
       d="M 248.71073,81.5 V 138 h 10.07396 10.07395 v -22.3 c 0,-12.2 0,-35.8 0,-52.5 0,-16.6 0.28783,-30.2 0.6716,-30.2 0.47971,0 1.24725,0.4 1.8229,0.8 2.01479,1.3 20.53168,41.3 20.53168,44.3 0,5.2 -2.78233,6.9 -11.32121,6.9 h -7.48351 l -1.63102,3.5 c -2.11073,4.6 -2.11073,4.5 1.53508,4.5 1.72697,0 3.93364,0.6 4.98901,1.4 1.05536,0.8 6.42814,10.9 11.9928,22.5 l 10.07395,21.1 h 10.26584 c 5.75654,0 10.36178,-0.2 10.36178,-0.5 0,-0.3 -4.50929,-10 -10.07395,-21.5 C 301.575,97.3 300.13586,94.9 297.06571,93.2 l -3.45393,-1.8 3.8377,-1.2 C 304.83704,87.9 311.16924,77.4 309.7301,69.8 309.34633,68 304.83704,57.9 299.75209,47.5 288.04712,23.6 290.15785,25 266.26819,25 h -17.55746 z"
       id="path3826"
       inkscape:connector-curvature="0"
       style="fill:#000000;stroke:none;stroke-width:0.0979502" />
    <path
       d="m 336.97775,25.5 c 0,0.3 10.93743,23.3 24.36937,51.3 15.06296,31.4 25.42474,51.7 27.05576,53.4 1.53508,1.5 4.989,3.7 7.57945,5 4.70118,2.3 5.46872,2.3 42.50249,2.6 l 37.60942,0.3 V 81.6 25 h -10.55366 -10.55367 v 54 c 0,29.7 -0.38377,54 -0.86348,54 -0.38377,0 -2.20668,-1 -4.02958,-2.3 -2.78233,-1.9 -6.81191,-9.5 -28.20707,-53.9 L 396.94175,25 H 386.1962 c -5.94843,0 -10.84149,0.2 -10.84149,0.5 0,0.3 10.93744,23.4 24.36937,51.3 19.47631,40.5 25.13691,51.5 27.8233,54 l 3.54987,3.2 h -7.29162 c -8.05916,0 -11.41715,-1.3 -14.96702,-5.8 -1.24725,-1.6 -13.04817,-25.5 -26.28822,-53 L 358.56479,25 h -10.74555 c -5.94843,0 -10.84149,0.2 -10.84149,0.5 z"
       id="path3828"
       inkscape:connector-curvature="0"
       style="fill:#000000;stroke:none;stroke-width:0.0979502" />
    <path
       d="m 538.36086,26.6 c -2.87827,0.9 -5.6606,2.8 -7.96322,5.4 -2.20667,2.6 -11.9928,21.7 -27.91924,55 l -24.46531,51 h 10.84149 10.74555 l 9.11453,-19 9.11453,-19 h 15.35078 15.44673 l 1.63102,-3.5 c 0.86348,-2 1.63102,-3.8 1.63102,-4 0,-0.3 -6.71597,-0.5 -14.87107,-0.5 -8.1551,0 -14.87107,-0.2 -14.87107,-0.5 0,-0.3 5.85248,-12.6 12.95222,-27.5 11.41715,-23.7 14.48731,-29 17.17369,-29 0.28783,0 0.57566,23.2 0.57566,51.5 V 138 h 10.55366 10.55367 V 81.5 25 l -15.54267,0.1 c -10.64961,0 -17.07775,0.5 -20.05197,1.5 z"
       id="path3830"
       inkscape:connector-curvature="0"
       style="fill:#000000;stroke:none;stroke-width:0.0979502" />
    <path
       d="M 577.79319,81.5 V 138 h 10.07396 10.07395 v -22.3 c 0,-12.2 0,-35.8 0,-52.5 0,-16.6 0.28783,-30.2 0.6716,-30.2 0.47971,0 1.24725,0.4 1.8229,0.8 2.01479,1.3 20.53168,41.3 20.53168,44.3 0,5.2 -2.78233,6.9 -11.32121,6.9 h -7.4835 l -1.63103,3.5 c -2.11073,4.6 -2.11073,4.5 1.53508,4.5 1.72697,0 3.93364,0.6 4.98901,1.4 1.05536,0.8 6.42814,10.9 11.9928,22.5 l 10.07395,21.1 h 10.26584 c 5.75654,0 10.36178,-0.2 10.36178,-0.5 0,-0.3 -4.50929,-10 -10.07395,-21.5 -9.01859,-18.7 -10.45773,-21.1 -13.52788,-22.8 l -3.45393,-1.8 3.8377,-1.2 C 633.9195,87.9 640.2517,77.4 638.81257,69.8 638.4288,68 633.9195,57.9 628.83455,47.5 617.12958,23.6 619.24031,25 595.35065,25 h -17.55746 z"
       id="path3832"
       inkscape:connector-curvature="0"
       style="fill:#000000;stroke:none;stroke-width:0.0979502" />
    <path
       d="m 667,25.9 c -4.1,1.3 -11.3,5.2 -13.8,7.5 -6.8,6.1 -9,18.8 -5.2,29.1 2.1,5.4 4.3,8 21.6,25.5 10.6,10.7 19.8,20.8 20.4,22.5 2.2,5.7 -0.9,14.3 -6.3,17.5 -2.7,1.7 -5.1,2 -16.3,2 h -13 l -1.7,3.5 c -0.9,2 -1.7,3.8 -1.7,4 0,0.3 7.6,0.5 17,0.5 14.5,0 17.7,-0.3 22.3,-2 5.5,-2.1 11.4,-7.3 14,-12.5 4.1,-8.4 4.6,-20.8 1.2,-27.6 C 704.5,94 694.8,83.5 683.9,72.5 673,61.5 663.6,51.2 663.1,49.7 660.5,42.9 662.6,38 669.4,34.9 672.7,33.4 676,33 686.6,33 h 13 l 1.7,-3.5 c 0.9,-2 1.7,-3.8 1.7,-4 0,-0.8 -33.3,-0.4 -36,0.4 z"
       id="path3834"
       inkscape:connector-curvature="0"
       style="fill:#000000;stroke:none;stroke-width:0.1" />
  </g>
</svg>
