<?xml version="1.0" standalone="no"?>
<!DOCTYPE svg PUBLIC "-//W3C//DTD SVG 20010904//EN"
 "http://www.w3.org/TR/2001/REC-SVG-20010904/DTD/svg10.dtd">
<svg version="1.0" xmlns="http://www.w3.org/2000/svg"
 width="300.000000pt" height="220.000000pt" viewBox="0 0 300.000000 220.000000"
 preserveAspectRatio="xMidYMid meet">
<metadata>
Created by potrace 1.10, written by Peter Selinger 2001-2011
</metadata>
<g transform="translate(0.000000,220.000000) scale(0.100000,-0.100000)"
fill="#000000" stroke="none">
<path d="M1439 2124 c-9 -11 -16 -53 -19 -111 l-5 -94 -74 -2 c-66 -3 -76 -5
-97 -30 l-24 -28 -24 28 c-23 26 -30 28 -99 28 -113 0 -117 -6 -117 -165 0
-147 6 -160 71 -169 35 -5 44 -10 44 -26 0 -20 -8 -20 -463 -25 -444 -5 -464
-6 -478 -24 -11 -16 -14 -88 -14 -406 l0 -387 23 -21 23 -22 1281 0 c1280 0
1280 0 1307 21 l26 20 0 388 c0 318 -3 391 -14 407 -14 18 -34 19 -483 24
-460 5 -468 5 -468 25 0 16 9 21 42 26 71 9 73 14 73 168 0 93 -4 141 -12 149
-8 8 -45 12 -99 12 -79 0 -89 -2 -103 -22 -9 -12 -16 -32 -17 -43 -1 -13 -4
-10 -10 11 -13 44 -25 51 -104 61 l-70 9 46 29 c91 56 86 84 -24 145 -80 44
-98 48 -118 24z m190 -104 c0 -3 -32 -21 -72 -42 l-72 -36 -3 -86 c-2 -75 -1
-86 14 -86 14 0 16 8 11 60 l-5 60 89 0 89 0 0 -59 0 -60 43 -4 42 -4 -43 -1
c-31 -2 -44 2 -49 14 -5 13 -7 13 -14 2 -16 -25 -9 -28 56 -28 l65 0 -1 33
c-1 17 -3 24 -6 15 -10 -37 -23 -16 -23 37 l0 55 90 0 90 0 0 -140 0 -140 -65
0 -65 0 0 -55 0 -55 488 0 487 0 0 -400 0 -400 -1302 0 -1303 0 0 400 0 400
480 0 480 0 0 51 c0 31 4 48 10 44 6 -3 10 -21 10 -40 0 -70 38 -65 -484 -67
l-471 -3 468 -2 467 -3 0 -173 c-1 -137 -3 -169 -13 -156 -7 9 -38 44 -70 79
-49 52 -61 61 -71 49 -7 -8 -40 -44 -73 -80 l-61 -66 -70 59 -71 58 -231 -261
c-127 -144 -228 -264 -226 -267 11 -10 49 27 179 173 216 243 282 308 295 292
9 -11 -2 -25 -54 -67 -35 -29 -62 -55 -60 -58 10 -10 100 53 121 84 l21 31 37
-26 c20 -14 36 -30 37 -36 0 -5 -47 -61 -105 -124 -57 -63 -101 -119 -98 -124
3 -6 2 -7 -4 -4 -9 5 -59 -41 -91 -83 -9 -13 -8 -16 6 -17 18 -1 149 143 145
158 -2 5 1 8 5 6 5 -1 32 24 61 55 29 32 57 56 61 53 4 -2 47 39 95 93 49 53
91 98 94 100 9 3 144 -148 138 -154 -2 -3 -30 5 -61 17 -32 11 -58 19 -60 17
-1 -1 -9 -19 -17 -38 l-16 -35 -19 37 -19 36 -63 -46 c-69 -51 -63 -73 7 -26
40 26 42 26 67 9 25 -16 28 -16 54 4 23 17 37 19 79 14 l51 -6 0 -72 0 -72
-57 -50 c-32 -28 -75 -66 -96 -85 l-37 -34 150 -3 c147 -3 150 -2 174 22 13
14 41 57 60 96 l36 71 -100 0 -100 0 0 356 c0 321 -2 356 -16 350 -9 -3 -32
-7 -52 -7 l-37 -2 40 -7 c36 -6 34 -7 -25 -9 l-65 -1 3 140 3 140 85 0 84 0 0
-32 c0 -18 -4 -50 -9 -70 l-9 -38 62 0 61 0 -4 52 -5 53 -7 -40 c-4 -28 -7
-32 -8 -14 0 15 -4 41 -7 58 l-6 31 91 0 91 0 0 -45 c0 -25 -4 -45 -10 -45 -5
0 -10 -11 -10 -25 0 -24 3 -25 60 -25 l60 0 -1 48 -2 47 -6 -40 c-6 -39 -7
-40 -46 -42 -22 -1 -34 0 -28 3 10 4 11 47 6 180 l-6 174 91 -48 c51 -26 92
-49 91 -52z m-391 -257 c-10 -2 -26 -2 -35 0 -10 3 -2 5 17 5 19 0 27 -2 18
-5z m44 -928 l-47 -75 -124 0 c-68 0 -122 2 -120 4 2 2 42 36 89 75 l85 71 82
0 82 0 -47 -75z"/>
<path d="M1073 1863 c15 -2 39 -2 55 0 15 2 2 4 -28 4 -30 0 -43 -2 -27 -4z"/>
<path d="M1323 1863 c15 -2 39 -2 55 0 15 2 2 4 -28 4 -30 0 -43 -2 -27 -4z"/>
<path d="M1573 1863 c9 -2 25 -2 35 0 9 3 1 5 -18 5 -19 0 -27 -2 -17 -5z"/>
<path d="M1823 1863 c9 -2 25 -2 35 0 9 3 1 5 -18 5 -19 0 -27 -2 -17 -5z"/>
<path d="M1024 1745 c0 -55 1 -76 3 -47 2 29 2 74 0 100 -2 26 -3 2 -3 -53z"/>
<path d="M1399 1623 c-49 -30 -59 -61 -59 -177 l0 -106 73 2 72 1 -65 6 -65 6
-3 92 c-4 127 16 163 103 184 l30 7 -30 1 c-16 0 -42 -7 -56 -16z"/>
<path d="M1780 1284 l0 -354 -100 0 -99 0 29 -58 c17 -31 44 -74 61 -95 l30
-37 114 0 c65 0 116 4 120 10 4 6 -36 10 -113 10 l-118 0 -47 73 -46 72 80 3
80 3 72 -62 c113 -96 117 -99 117 -93 0 4 8 0 18 -7 41 -32 -37 46 -104 103
l-74 63 0 62 c0 59 2 64 26 75 22 10 31 9 56 -5 30 -17 48 -13 69 17 4 4 26 4
50 -1 70 -15 77 -2 14 23 -32 13 -62 24 -66 24 -4 0 -14 -17 -22 -37 l-15 -38
-18 38 c-10 20 -21 37 -24 37 -4 0 -17 -11 -30 -25 -28 -29 -40 -32 -40 -7 1
9 29 48 64 86 l64 69 63 -68 c35 -38 76 -75 90 -84 15 -9 90 -86 168 -171 78
-85 149 -157 159 -159 20 -4 33 -19 -167 198 -78 85 -140 158 -139 162 2 4 21
21 42 37 l40 30 20 -31 c21 -30 112 -94 122 -84 3 2 -25 28 -60 57 -53 43 -63
56 -54 67 13 16 59 -30 305 -304 108 -121 152 -163 174 -168 17 -4 33 -4 36
-1 4 3 -3 6 -13 6 -14 0 -96 87 -254 265 -205 233 -235 264 -249 252 -9 -7
-42 -35 -75 -62 l-58 -49 -20 24 c-11 14 -45 51 -76 83 l-55 59 -63 -69 -63
-68 -1 163 0 162 473 2 472 3 -475 5 -475 5 -3 55 c-2 41 1 57 13 66 14 10 13
12 -5 17 -20 5 -20 2 -20 -349z"/>
<path d="M1398 1591 c-33 -29 -33 -31 -36 -130 l-4 -101 109 0 108 0 -3 87
c-4 118 -7 130 -45 153 -47 29 -90 26 -129 -9z m112 -1 c29 -16 42 -48 46
-113 6 -87 -3 -97 -84 -97 -40 0 -73 5 -80 12 -17 17 -15 123 3 158 24 47 72
63 115 40z"/>
<path d="M185 1100 c0 -206 1 -291 2 -188 2 104 2 272 0 375 -1 104 -2 19 -2
-187z"/>
<path d="M2755 1100 c0 -206 1 -291 2 -188 2 104 2 272 0 375 -1 104 -2 19 -2
-187z"/>
<path d="M1580 1355 c-10 -12 -10 -15 4 -15 9 0 16 7 16 15 0 8 -2 15 -4 15
-2 0 -9 -7 -16 -15z"/>
<path d="M1395 1208 c-41 -32 -55 -76 -53 -170 l1 -83 7 90 c4 53 14 103 24
123 9 17 18 32 19 32 1 0 20 7 42 15 34 12 36 14 14 15 -15 0 -39 -10 -54 -22z"/>
<path d="M1399 1181 c-29 -29 -29 -31 -29 -141 0 -72 4 -109 10 -105 6 3 10
50 10 106 0 93 2 102 25 124 30 31 71 32 109 2 28 -22 28 -24 27 -124 -1 -60
3 -104 9 -108 6 -4 10 32 10 105 0 110 0 112 -29 141 -41 41 -101 41 -142 0z"/>
<path d="M183 513 c-53 -10 -72 -101 -30 -141 13 -12 33 -22 44 -22 28 0 33
-17 33 -124 0 -84 2 -95 23 -114 32 -30 87 -29 115 1 18 19 22 36 24 122 4
129 22 128 26 -2 2 -83 6 -101 24 -120 28 -30 83 -31 113 -3 l22 20 27 -21
c21 -17 35 -20 64 -15 20 4 48 6 62 5 14 0 97 -1 185 0 169 0 179 0 250 0 25
0 55 1 68 1 12 1 37 -2 55 -6 21 -4 43 -2 58 6 18 10 30 11 49 2 14 -7 65 -12
114 -12 79 0 90 2 109 23 20 21 22 34 22 131 0 124 -13 160 -65 182 -46 19
-139 18 -181 -2 -30 -14 -37 -14 -76 -1 -41 15 -96 16 -353 7 -16 0 -61 2 -98
6 -52 5 -78 2 -113 -11 -41 -16 -47 -16 -78 -1 -19 9 -46 16 -60 16 -16 0 -29
7 -33 18 -3 9 -15 27 -26 40 -20 21 -26 22 -186 21 -91 -1 -176 -4 -188 -6z
m410 -115 c42 3 58 -1 80 -18 27 -21 27 -23 27 -136 l0 -114 -43 0 -42 0 0 92
0 92 -37 1 -38 2 0 -94 0 -93 -40 0 -40 0 0 174 0 175 38 3 37 3 3 -45 3 -45
52 3z m-260 72 l117 0 0 -40 0 -40 -50 0 -50 0 0 -130 0 -130 -40 0 -40 0 0
130 0 130 -50 0 -50 0 0 46 c0 43 2 46 23 40 12 -3 75 -6 140 -6z m602 -95
c21 -20 25 -33 25 -88 l0 -64 -75 5 c-52 3 -75 1 -75 -7 0 -7 26 -11 75 -11
l75 0 0 -40 0 -40 -97 0 c-131 0 -133 2 -133 136 0 126 7 134 113 134 59 0 71
-3 92 -25z m250 16 c6 0 31 2 58 5 35 4 54 2 72 -10 24 -16 25 -20 25 -136 l0
-120 -40 0 -40 0 0 96 0 95 -26 -3 -27 -3 2 -93 2 -92 -46 0 -46 0 2 92 2 93
-27 3 -26 3 0 -95 0 -96 -40 0 -40 0 0 135 0 135 93 -4 c50 -3 97 -5 102 -5z
m393 -7 c19 -13 22 -24 22 -88 l0 -73 -75 5 c-52 3 -75 1 -75 -7 0 -7 26 -11
75 -11 l75 0 0 -40 0 -40 -95 0 c-129 0 -135 6 -135 134 0 90 1 96 26 115 34
27 147 30 182 5z"/>
<path d="M810 310 c0 -5 16 -10 35 -10 19 0 35 5 35 10 0 6 -16 10 -35 10 -19
0 -35 -4 -35 -10z"/>
<path d="M1450 310 c0 -5 16 -10 35 -10 19 0 35 5 35 10 0 6 -16 10 -35 10
-19 0 -35 -4 -35 -10z"/>
<path d="M1785 513 c-52 -14 -55 -24 -55 -208 0 -166 1 -172 23 -193 48 -45
137 -10 137 53 0 29 4 31 78 40 44 5 52 3 52 -11 0 -27 37 -80 65 -92 17 -8
78 -12 168 -11 129 1 144 3 165 22 16 15 22 32 22 61 0 52 10 67 38 59 19 -4
22 -12 22 -50 0 -75 70 -118 130 -81 15 10 26 10 53 0 74 -27 157 -6 157 39 0
11 -23 45 -52 75 l-52 55 48 48 c35 35 47 55 44 72 -5 34 -43 51 -105 44 l-51
-5 -12 35 c-13 41 -35 55 -84 55 -25 0 -40 -7 -55 -26 -12 -15 -21 -33 -21
-40 0 -9 -26 -14 -92 -18 -122 -7 -127 -7 -241 0 -82 5 -99 9 -107 25 -19 35
-70 52 -165 55 -49 2 -99 0 -110 -3z m836 -109 l-3 -79 40 38 c37 37 41 38 99
35 l61 -3 -75 -63 -74 -63 48 -43 c26 -24 62 -55 78 -69 l30 -26 -60 -1 c-55
0 -63 3 -97 35 -20 19 -40 35 -44 35 -3 0 -4 -16 -1 -35 l6 -35 -45 0 -44 0 0
178 0 177 42 -1 43 -1 -4 -79z m-713 66 c77 0 95 -3 111 -19 25 -25 35 -89 21
-140 -14 -54 -51 -74 -131 -69 l-59 3 0 -57 0 -58 -42 0 -43 0 2 172 c1 95 2
175 2 177 1 2 11 1 24 -3 12 -3 64 -6 115 -6z m362 -90 c18 -18 20 -33 20
-135 l0 -115 -95 0 c-116 0 -135 12 -135 88 0 70 16 86 92 93 l63 6 -72 1 -73
2 0 40 0 40 90 0 c77 0 93 -3 110 -20z m241 -1 c12 -12 19 -33 19 -58 0 -38
-1 -39 -40 -43 -36 -3 -40 -1 -40 19 0 18 -6 23 -26 23 l-25 0 3 -95 3 -95
-42 0 -43 0 0 135 0 134 86 0 c71 0 88 -3 105 -20z"/>
<path d="M1850 360 c0 -30 1 -30 55 -30 54 0 55 0 55 30 0 30 -1 30 -55 30
-54 0 -55 0 -55 -30z"/>
<path d="M2140 220 c0 -5 16 -10 35 -10 19 0 35 5 35 10 0 6 -16 10 -35 10
-19 0 -35 -4 -35 -10z"/>
</g>
</svg>
